<svg enable-background="new 0 0 800 800" viewBox="0 0 800 800" xmlns="http://www.w3.org/2000/svg" xmlns:xlink="http://www.w3.org/1999/xlink"><linearGradient id="a"><stop offset=".15" stop-color="#e84281"/><stop offset=".75" stop-color="#faba00"/></linearGradient><linearGradient id="b" gradientUnits="userSpaceOnUse" x1="111.6335" x2="355.0334" xlink:href="#a" y1="355.0331" y2="111.6332"/><linearGradient id="c" gradientUnits="userSpaceOnUse" x1="111.6335" x2="355.0334" xlink:href="#a" y1="688.3661" y2="444.9662"/><linearGradient id="d" gradientUnits="userSpaceOnUse" x1="444.967" x2="688.3669" xlink:href="#a" y1="355.0331" y2="111.6332"/><path d="m566.4 705.7c-21.5 0-39-17.5-39-39v-61h-61c-21.5 0-39-17.5-39-39s17.5-39 39-39h61v-61c0-21.5 17.5-39 39-39s39 17.5 39 39v61h61c21.5 0 39 17.5 39 39s-17.5 39-39 39h-61v61c0 21.5-17.5 39-39 39z" fill="#403d82"/><path d="m313.3 372.3h-160c-32.5 0-59-26.5-59-59v-160c0-32.5 26.5-59 59-59h160c32.5 0 59 26.5 59 59v160c0 32.6-26.4 59-59 59zm-141-78h122v-122h-122z" fill="url(#b)"/><path d="m313.3 705.7h-160c-32.5 0-59-26.5-59-59v-160c0-32.5 26.5-59 59-59h160c32.5 0 59 26.5 59 59v160c0 32.5-26.4 59-59 59zm-141-78h122v-122h-122z" fill="url(#c)"/><path d="m646.7 372.3h-160c-32.5 0-59-26.5-59-59v-160c0-32.5 26.5-59 59-59h160c32.5 0 59 26.5 59 59v160c0 32.6-26.5 59-59 59zm-141-78h122v-122h-122z" fill="url(#d)"/></svg>